<?xml version="1.0" standalone="no"?>
<svg version="1.0" xmlns="http://www.w3.org/2000/svg"
 width="593.000000pt" height="584.000000pt" viewBox="0 0 593.000000 584.000000"
 preserveAspectRatio="xMidYMid meet">

<g transform="translate(0.000000,584.000000) scale(0.100000,-0.100000)"
fill="#000000" stroke="none">
<path d="M0 2920 l0 -2920 2965 0 2965 0 0 2920 0 2920 -2965 0 -2965 0 0
-2920z m3058 1375 c48 -74 109 -170 136 -212 28 -43 77 -121 111 -173 34 -52
74 -114 89 -138 15 -23 31 -40 35 -38 5 3 63 98 130 210 67 112 128 206 135
209 8 3 21 -2 28 -11 13 -15 174 -249 259 -377 18 -27 38 -53 43 -57 6 -4 109
-8 229 -8 210 0 217 -1 217 -20 0 -19 -7 -20 -234 -20 l-234 0 -144 212 c-79
116 -149 213 -154 215 -11 4 -250 -396 -246 -411 2 -5 33 -55 69 -110 160
-244 194 -299 189 -312 -3 -8 -10 -14 -15 -14 -6 0 -64 81 -128 181 -65 100
-125 190 -133 201 -14 18 -24 6 -160 -207 -80 -124 -182 -283 -227 -353 -47
-73 -88 -127 -97 -127 -9 0 -91 117 -207 295 -224 346 -238 368 -260 397 -16
22 -18 19 -150 -173 -137 -200 -155 -224 -168 -224 -4 0 -72 97 -151 215
l-144 215 -200 2 c-171 3 -201 5 -201 18 0 13 31 15 212 18 l212 2 133 -199
c73 -110 138 -200 143 -200 6 0 38 41 72 92 34 50 93 138 132 195 l70 103 -44
67 c-205 314 -247 384 -237 394 6 6 15 7 21 4 10 -6 132 -189 236 -353 22 -35
45 -63 50 -63 6 0 113 156 239 345 125 190 235 345 242 345 8 0 54 -61 102
-135z m-1672 -1940 c84 -25 174 -120 174 -185 0 -16 -6 -20 -30 -20 -24 0 -32
6 -43 33 -35 83 -147 134 -268 123 -81 -7 -105 -16 -147 -51 -61 -51 -62 -148
-2 -198 35 -30 90 -49 224 -78 109 -23 197 -58 235 -92 63 -58 79 -168 36
-253 -55 -111 -192 -165 -358 -144 -147 18 -240 84 -271 191 -21 70 -21 69 18
69 32 0 35 -3 50 -48 27 -81 86 -123 199 -142 82 -15 191 1 238 33 56 38 74
72 74 137 0 51 -4 63 -29 89 -35 37 -101 63 -243 96 -138 33 -226 75 -258 123
-47 71 -42 167 11 238 29 37 107 82 166 94 55 11 159 5 224 -15z m982 -27 l-3
-33 -147 -3 -148 -3 0 -394 0 -395 -35 0 -35 0 0 395 0 394 -147 3 -148 3 -3
33 -3 32 336 0 336 0 -3 -32z m660 17 c60 -18 119 -66 138 -112 8 -18 14 -66
14 -106 0 -99 -26 -150 -98 -192 -28 -16 -51 -33 -52 -37 0 -3 12 -21 26 -38
25 -29 144 -317 144 -347 0 -8 -13 -13 -33 -13 -37 0 -28 -18 -118 219 -39
104 -87 157 -151 166 -24 3 -104 5 -178 3 l-135 -3 -3 -193 -2 -193 -33 3 -32
3 -3 428 -2 427 233 0 c181 0 245 -3 285 -15z m432 -277 c0 -311 6 -362 49
-432 41 -66 159 -97 283 -76 89 16 120 37 154 107 l29 58 3 318 3 317 35 0 34
0 0 -282 c0 -156 -4 -310 -10 -342 -15 -91 -52 -159 -107 -195 -64 -43 -112
-55 -218 -54 -188 1 -284 74 -314 238 -6 34 -11 182 -11 347 l0 288 35 0 35 0
0 -292z m1044 -81 c82 -204 152 -375 155 -379 4 -5 32 54 63 130 30 75 100
246 154 380 l98 242 48 0 48 0 0 -430 0 -430 -35 0 -35 0 0 357 c0 225 -4 353
-9 348 -6 -6 -46 -98 -89 -205 -43 -107 -107 -264 -142 -348 l-63 -153 -35 3
-36 3 -98 240 c-54 132 -119 292 -145 355 l-48 115 -5 -355 -5 -355 -32 -3
-33 -3 0 430 0 431 48 0 47 0 149 -373z"/>
<path d="M2727 4030 l-227 -340 222 -342 c123 -188 228 -343 233 -345 15 -4
447 675 439 690 -23 39 -419 654 -429 665 -9 10 -60 -60 -238 -328z"/>
<path d="M2582 2123 l3 -168 195 1 c175 1 200 3 242 22 70 31 90 68 86 161 -3
68 -6 75 -35 101 -48 43 -90 50 -301 50 l-192 0 2 -167z"/>
</g>
</svg>
